<svg xmlns="http://www.w3.org/2000/svg" width="420" height="260" viewBox="0 0 420 260" role="img" aria-labelledby="title desc">
  <title id="title">Prompt timeline learning map</title>
  <desc id="desc">A visual map showing prompts flowing into work summaries and learning notes over time.</desc>
  <rect width="420" height="260" rx="8" fill="#EFF6FF"/>
  <path d="M54 54h312v152H54z" fill="#fff" stroke="#DBE7FB" stroke-width="2"/>
  <path d="M94 84h64M94 112h112M94 140h86" stroke="#2563EB" stroke-width="8" stroke-linecap="round"/>
  <circle cx="70" cy="84" r="8" fill="#2563EB"/>
  <circle cx="70" cy="112" r="8" fill="#F59E0B"/>
  <circle cx="70" cy="140" r="8" fill="#0F766E"/>
  <path d="M236 72h84a14 14 0 0 1 14 14v84a14 14 0 0 1-14 14h-84a14 14 0 0 1-14-14V86a14 14 0 0 1 14-14Z" fill="#F8FBFF" stroke="#BFD3F7" stroke-width="2"/>
  <path d="M244 102h68M244 126h52M244 150h72" stroke="#64748B" stroke-width="7" stroke-linecap="round"/>
  <path d="M178 112c28 0 28 30 56 30" fill="none" stroke="#EC4899" stroke-width="4" stroke-linecap="round"/>
  <path d="m230 132 8 10-13 3" fill="none" stroke="#EC4899" stroke-width="4" stroke-linecap="round" stroke-linejoin="round"/>
  <rect x="42" y="36" width="126" height="28" rx="6" fill="#2563EB"/>
  <path d="M60 50h88" stroke="#fff" stroke-width="6" stroke-linecap="round"/>
  <rect x="214" y="196" width="132" height="28" rx="6" fill="#FEF3C7"/>
  <path d="M232 210h96" stroke="#92400E" stroke-width="6" stroke-linecap="round"/>
</svg>
